<?xml version="1.0" standalone="no"?>
<!DOCTYPE svg PUBLIC "-//W3C//DTD SVG 1.1//EN" "http://www.w3.org/Graphics/SVG/1.1/DTD/svg11.dtd"><svg t="1739510870617"
  class="icon" viewBox="0 0 1024 1024" version="1.1" xmlns="http://www.w3.org/2000/svg" p-id="16267"
  xmlns:xlink="http://www.w3.org/1999/xlink" width="200" height="200" stroke="currentColor">
  <path fill="currentColor"
    d="M306.005333 117.617778L444.330667 256h135.310222l138.353778-138.325333a42.666667 42.666667 0 0 1 60.359111 60.359111L700.359111 256h89.002667C871.822222 256 938.666667 322.844444 938.666667 405.333333v341.333334c0 82.488889-66.844444 149.333333-149.333334 149.333333H234.666667A149.333333 149.333333 0 0 1 85.333333 746.666667v-341.333334C85.333333 322.844444 152.177778 256 234.666667 256h88.945777L245.646222 177.976889a42.666667 42.666667 0 0 1 60.387556-60.359111v0.028444zM789.333333 341.333333H234.666667a64 64 0 0 0-63.715556 57.856L170.666667 405.333333v341.333334a64 64 0 0 0 57.856 63.715555l6.144 0.284445h554.666666a64 64 0 0 0 63.715556-57.856l0.284444-6.144v-341.333334A64 64 0 0 0 789.333333 341.333333zM341.333333 469.333333a42.666667 42.666667 0 0 1 42.666667 42.666667v85.333333a42.666667 42.666667 0 0 1-85.333333 0v-85.333333a42.666667 42.666667 0 0 1 42.666666-42.666667z m341.333334 0a42.666667 42.666667 0 0 1 42.666666 42.666667v85.333333a42.666667 42.666667 0 0 1-85.333333 0v-85.333333a42.666667 42.666667 0 0 1 42.666667-42.666667z"
    p-id="16268"></path>
</svg>
